<svg height="512pt" viewBox="0 0 512 512" width="512pt" xmlns="http://www.w3.org/2000/svg"><path d="m0 30h60l31 248.5625-31 173.4375c-33.136719 0-60-26.863281-60-60zm0 0" fill="#ff4b00"/><path d="m362 60v392h-302v-392l31-30h211l30 30zm0 0" fill="#663325"/><path d="m362 60v392h-151v-422h91l30 30zm0 0" fill="#582b1f"/><path d="m121 120h181v30h-181zm0 0" fill="#fdbf00"/><path d="m211 120h91v30h-91zm0 0" fill="#ff9f00"/><path d="m332 0v60h-302c-16.5 0-30-13.5-30-30s13.5-30 30-30zm0 0" fill="#f4d7af"/><path d="m211 0h121v60h-121zm0 0" fill="#f2bf81"/><path d="m437.300781 272c-26.402343 0-47.101562 14.398438-60.300781 31.800781-13.199219-17.402343-33-31.800781-59.398438-31.800781-43.800781 0-75.601562 31.5-75.601562 75 0 57.597656 60 100.800781 135 165 85.199219-71.699219 135-105.300781 135-160.199219 0-44.703125-33-79.800781-74.699219-79.800781zm0 0" fill="#ff7816"/><path d="m512 351.800781c0 54.898438-49.800781 88.5-135 160.199219v-208.199219c13.199219-17.402343 33.898438-31.800781 60.300781-31.800781 41.699219 0 74.699219 35.097656 74.699219 79.800781zm0 0" fill="#ff4b00"/></svg>