<?xml version="1.0" encoding="iso-8859-1"?>
<!-- Generator: Adobe Illustrator 19.0.0, SVG Export Plug-In . SVG Version: 6.00 Build 0)  -->
<svg version="1.1" id="Capa_1" xmlns="http://www.w3.org/2000/svg" xmlns:xlink="http://www.w3.org/1999/xlink" x="0px" y="0px"
	 viewBox="0 0 512 512" style="enable-background:new 0 0 512 512;" xml:space="preserve">
<path style="fill:#34ABE0;" d="M512,256c0,2.288-0.031,4.566-0.104,6.834v0.01c-1.181,45.683-14.346,88.387-36.467,125.084
	c-44.794,74.344-126.306,124.07-219.427,124.07S81.369,462.272,36.574,387.928c-11.201-18.578-20.104-38.703-26.31-59.987
	c-2.55-8.694-4.65-17.586-6.248-26.645C1.372,286.594,0.003,271.454,0.003,256c0-11.755,0.794-23.322,2.341-34.649
	c1.212-9.038,2.905-17.93,5.047-26.645c6.196-25.224,16.133-48.974,29.184-70.635c2.999-4.995,6.175-9.864,9.509-14.628
	C92.361,43.281,169.129,0.002,256.002,0.002s163.64,43.279,209.919,109.442c3.333,4.765,6.51,9.634,9.509,14.628
	c19.78,32.82,32.402,70.457,35.704,110.717C511.707,241.779,512,248.853,512,256z"/>
<g>
	<path style="fill:#78CAEF;" d="M221.687,278.558c2.414,2.403,3.908,5.736,3.908,9.414c0,7.356-5.966,13.322-13.322,13.322h-1.317
		c-3.678,0-7.011,1.494-9.414,3.908c-2.414,2.403-3.908,5.736-3.908,9.414c0,7.356-5.966,13.322-13.322,13.322H10.264
		c-2.55-8.694-4.65-17.586-6.248-26.645h28.923c3.678,0,7.011-1.494,9.425-3.908c2.403-2.403,3.897-5.736,3.897-9.414
		c0-7.356-5.966-13.322-13.322-13.322H21.632c-3.678,0-7.011-1.494-9.425-3.908c-2.403-2.403-3.897-5.736-3.897-9.414
		c0-7.366,5.966-13.322,13.322-13.322H59.05c3.688,0,7.011-1.494,9.425-3.908c2.414-2.403,3.908-5.736,3.908-9.414
		c0-7.366-5.966-13.333-13.333-13.333H2.344c1.212-9.038,2.905-17.93,5.047-26.645h173.797c3.678,0,7.011,1.494,9.425,3.897
		c2.403,2.414,3.897,5.747,3.897,9.425c0,7.367,5.956,13.322,13.322,13.322h4.441c7.356,0,13.322,5.966,13.322,13.333
		c0,7.356-5.966,13.322-13.322,13.322h-24.43c-3.678,0-7.011,1.484-9.414,3.897c-2.414,2.414-3.908,5.736-3.908,9.425
		c0,7.356,5.966,13.322,13.322,13.322h24.43C215.951,274.651,219.284,276.145,221.687,278.558z"/>
	<path style="fill:#78CAEF;" d="M512,256c0,2.288-0.031,4.566-0.104,6.834v0.01c-1.285,0.637-2.456,1.484-3.469,2.487
		c-2.403,2.414-3.897,5.747-3.897,9.425c0,7.366-5.956,13.322-13.322,13.322H383.604c-3.678,0-7.011-1.494-9.425-3.897
		c-2.403-2.414-3.897-5.747-3.897-9.425c0-7.356,5.966-13.322,13.322-13.322h3.709c3.678,0,7.011-1.494,9.414-3.897
		c2.414-2.414,3.908-5.747,3.908-9.425c0-7.356-5.966-13.322-13.322-13.322h-36.32c-3.678,0-7.011-1.494-9.414-3.897
		c-2.414-2.414-3.908-5.747-3.908-9.425c0-7.356,5.966-13.322,13.322-13.322h112.274c7.356,0,13.322,5.966,13.322,13.322
		c0,7.356,5.966,13.322,13.322,13.322h21.222C511.707,241.779,512,248.853,512,256z"/>
</g>
<path style="fill:#FFD15C;" d="M475.432,109.442v278.484c-9.425,15.632-20.469,30.176-32.914,43.405
	c-6.269,6.677-12.904,13.009-19.853,18.975c-18.516,15.893-39.33,29.194-61.868,39.319c-3.584,1.609-7.21,3.145-10.877,4.587
	c-25.422,10.041-52.84,16.123-81.491,17.481c-3.605,0.178-7.241,0.282-10.888,0.293c-0.512,0.01-1.024,0.01-1.536,0.01
	c-25.056,0-49.267-3.594-72.139-10.313c-3.668-1.066-7.293-2.226-10.888-3.459c-30.991-10.616-59.298-27.021-83.633-47.919
	c-6.949-5.966-13.584-12.298-19.853-18.975c-12.445-13.228-23.489-27.773-32.914-43.405V109.443L475.432,109.442L475.432,109.442z"
	/>
<path style="fill:#EDBB4C;" d="M475.432,109.442v69.193h-0.01c-20.198,0-36.571-16.373-36.571-36.571
	c0,10.104-4.096,19.236-10.71,25.861c-6.625,6.614-15.757,10.71-25.861,10.71c-20.198,0-36.571-16.373-36.571-36.571
	c0,10.104-4.096,19.236-10.71,25.861c-6.625,6.614-15.757,10.71-25.861,10.71c-20.198,0-36.571-16.373-36.571-36.571
	c0,10.104-4.096,19.236-10.71,25.861c-6.625,6.614-15.757,10.71-25.861,10.71c-20.198,0-36.571-16.373-36.571-36.571
	c0,10.104-4.096,19.236-10.71,25.861c-6.625,6.614-15.757,10.71-25.861,10.71c-20.198,0-36.571-16.373-36.571-36.571
	c0,10.104-4.096,19.236-10.71,25.861c-6.625,6.614-15.757,10.71-25.861,10.71c-20.198,0-36.571-16.373-36.571-36.571
	c0,10.104-4.096,19.236-10.71,25.861c-6.625,6.614-15.747,10.71-25.851,10.71v-69.193H475.432z"/>
<path style="fill:#EF4152;" d="M73.142,0.003H35.958c-8.722,0-16.195,6.236-17.757,14.817L0,114.781
	c0,20.198,16.373,36.571,36.571,36.571l0,0c20.198,0,36.571-16.373,36.571-36.571V0.003z"/>
<path style="fill:#E8DBC4;" d="M146.285,0.003H73.142v114.778c0,20.198,16.373,36.571,36.571,36.571l0,0
	c20.198,0,36.571-16.373,36.571-36.571V0.003z"/>
<path style="fill:#EF4152;" d="M219.427,0.003h-73.142v114.778c0,20.198,16.373,36.571,36.571,36.571l0,0
	c20.198,0,36.571-16.373,36.571-36.571V0.003z"/>
<path style="fill:#E8DBC4;" d="M292.57,0.003h-73.142v114.778c0,20.198,16.373,36.571,36.571,36.571l0,0
	c20.198,0,36.571-16.373,36.571-36.571V0.003z"/>
<path style="fill:#EF4152;" d="M365.712,0.003H292.57v114.778c0,20.198,16.373,36.571,36.571,36.571l0,0
	c20.198,0,36.571-16.373,36.571-36.571V0.003z"/>
<path style="fill:#E8DBC4;" d="M438.854,0.003h-73.142v114.778c0,20.198,16.373,36.571,36.571,36.571l0,0
	c20.198,0,36.571-16.373,36.571-36.571V0.003z"/>
<path style="fill:#EF4152;" d="M476.039,0.003h-37.185v114.778c0,20.198,16.373,36.571,36.571,36.571l0,0
	c20.198,0,36.571-16.373,36.571-36.571l-18.2-99.963C492.235,6.239,484.761,0.003,476.039,0.003z"/>
<path style="fill:#EDBB4C;" d="M442.518,250.049v181.281c-6.269,6.677-12.904,13.009-19.853,18.975
	c-44.784,38.452-103.005,61.69-166.66,61.69s-121.876-23.238-166.66-61.69c-6.949-5.966-13.584-12.298-19.853-18.975V250.049
	c0-6.018,4.878-10.895,10.895-10.895h351.237C437.64,239.155,442.518,244.033,442.518,250.049z"/>
<path style="fill:#5C5E70;" d="M422.665,259.008v191.299c-44.784,38.452-103.005,61.69-166.66,61.69s-121.876-23.238-166.66-61.69
	V259.008H422.665z"/>
<path style="fill:#FF525D;" d="M53.642,92.582L53.642,92.582c-4.04,0-7.314-3.275-7.314-7.314V20.485
	c0-4.04,3.275-7.314,7.314-7.314l0,0c4.04,0,7.314,3.275,7.314,7.314v64.783C60.956,89.307,57.68,92.582,53.642,92.582z"/>
<path style="fill:#F9EED7;" d="M127.364,92.582L127.364,92.582c-4.04,0-7.314-3.275-7.314-7.314V20.485
	c0-4.04,3.275-7.314,7.314-7.314l0,0c4.04,0,7.314,3.275,7.314,7.314v64.783C134.678,89.307,131.403,92.582,127.364,92.582z"/>
<path style="fill:#FF525D;" d="M493.575,91.759L493.575,91.759c-3.956,0.818-7.826-1.725-8.644-5.68l-13.128-63.44
	c-0.818-3.956,1.725-7.826,5.68-8.644l0,0c3.956-0.818,7.826,1.725,8.644,5.68l13.128,63.44
	C500.075,87.069,497.531,90.94,493.575,91.759z"/>
<path style="fill:#F9EED7;" d="M422.255,92.582L422.255,92.582c-4.04,0-7.314-3.275-7.314-7.314V20.485
	c0-4.04,3.275-7.314,7.314-7.314l0,0c4.04,0,7.314,3.275,7.314,7.314v64.783C429.57,89.307,426.295,92.582,422.255,92.582z"/>
<path style="fill:#FF525D;" d="M348.533,92.582L348.533,92.582c-4.04,0-7.314-3.275-7.314-7.314V20.485
	c0-4.04,3.275-7.314,7.314-7.314l0,0c4.04,0,7.314,3.275,7.314,7.314v64.783C355.847,89.307,352.573,92.582,348.533,92.582z"/>
<path style="fill:#F9EED7;" d="M274.81,92.582L274.81,92.582c-4.04,0-7.314-3.275-7.314-7.314V20.485
	c0-4.04,3.275-7.314,7.314-7.314l0,0c4.04,0,7.314,3.275,7.314,7.314v64.783C282.124,89.307,278.849,92.582,274.81,92.582z"/>
<path style="fill:#FF525D;" d="M201.087,92.582L201.087,92.582c-4.04,0-7.314-3.275-7.314-7.314V20.485
	c0-4.04,3.275-7.314,7.314-7.314l0,0c4.04,0,7.314,3.275,7.314,7.314v64.783C208.402,89.307,205.127,92.582,201.087,92.582z"/>
<path style="fill:#4BC999;" d="M183.865,401.605v100.08c-3.668-1.066-7.293-2.226-10.888-3.459v-96.621H183.865z"/>
<g>
	<path style="fill:#FF525D;" d="M126.649,173.803c0-1.636,1.698-2.486,3.457-2.486h21.155c1.698,0,2.425,1.758,2.425,3.395
		c0,1.88-0.849,3.516-2.425,3.516H134.53v12.124h9.274c1.577,0,2.425,1.515,2.425,3.152c0,1.394-0.727,3.031-2.425,3.031h-9.274
		v16.61c0,1.636-2,2.486-3.94,2.486c-2.001,0-3.94-0.848-3.94-2.486C126.649,213.145,126.649,173.803,126.649,173.803z"/>
	<path style="fill:#FF525D;" d="M163.928,215.63c-1.759,0-3.456-0.848-3.456-2.486v-39.402c0-1.697,1.939-2.425,3.94-2.425
		c1.939,0,3.94,0.727,3.94,2.425v34.977h14.79c1.577,0,2.365,1.697,2.365,3.455c0,1.698-0.788,3.455-2.365,3.455L163.928,215.63
		L163.928,215.63z"/>
	<path style="fill:#FF525D;" d="M191.628,202.112v-16.913c0-10.123,6.184-13.881,14.184-13.881c8.002,0,14.246,3.758,14.246,13.881
		v16.913c0,10.123-6.244,13.881-14.246,13.881C197.812,215.993,191.628,212.235,191.628,202.112z M212.178,185.199
		c0-4.789-2.424-6.972-6.365-6.972c-4.001,0-6.304,2.183-6.304,6.972v16.913c0,4.789,2.303,6.97,6.304,6.97
		c3.94,0,6.365-2.182,6.365-6.97V185.199z"/>
	<path style="fill:#FF525D;" d="M267.036,213.326c-0.606,1.818-2.849,2.668-5.153,2.668c-2.242,0-4.607-0.848-5.03-2.668
		l-3.88-16.367l-3.94,16.367c-0.424,1.818-2.789,2.668-5.031,2.668c-2.303,0-4.606-0.848-5.152-2.668l-12.003-38.129
		c-0.061-0.182-0.12-0.485-0.12-0.727c0-1.758,2.788-3.152,5.03-3.152c1.213,0,2.304,0.424,2.607,1.576l9.577,32.856l5.153-21.095
		c0.364-1.515,2.121-2.183,3.88-2.183c1.697,0,3.455,0.667,3.818,2.183l5.153,21.095l9.577-32.856
		c0.303-1.151,1.394-1.576,2.606-1.576c2.242,0,5.031,1.394,5.031,3.152c0,0.242-0.061,0.545-0.121,0.727L267.036,213.326z"/>
	<path style="fill:#FF525D;" d="M294.25,190.352h9.214c1.576,0,2.486,1.515,2.486,3.152c0,1.394-0.789,3.031-2.486,3.031h-9.214
		v12.184h17.155c1.577,0,2.486,1.636,2.486,3.516c0,1.636-0.788,3.395-2.486,3.395h-21.579c-1.759,0-3.457-0.848-3.457-2.486
		v-39.341c0-1.636,1.698-2.486,3.457-2.486h21.579c1.698,0,2.486,1.758,2.486,3.395c0,1.88-0.909,3.516-2.486,3.516H294.25V190.352z
		"/>
	<path style="fill:#FF525D;" d="M321.527,173.742c0-1.273,1.03-2.425,2.546-2.425h12.003c7.941,0,14.366,3.031,14.366,12.669
		c0,6.972-3.395,10.729-7.941,12.124l7.941,14.73c0.242,0.303,0.303,0.727,0.303,0.97c0,2-2.606,4.122-4.91,4.122
		c-1.091,0-2.121-0.667-2.727-1.879l-8.608-16.731h-5.092v15.822c0,1.636-1.939,2.486-3.94,2.486c-1.939,0-3.94-0.848-3.94-2.486
		v-39.402H321.527z M329.407,178.228v12.912h6.668c3.94,0,6.486-1.636,6.486-6.426c0-4.789-2.546-6.487-6.486-6.487h-6.668V178.228z
		"/>
	<path style="fill:#FF525D;" d="M377.474,203.809c0-9.093-19.458-6.304-19.458-20.671c0-9.032,7.759-12.124,14.731-12.124
		c3.577,0,11.517,0.848,11.517,4.849c0,1.394-0.971,4.183-3.152,4.183c-1.88,0-3.274-2.304-8.365-2.304
		c-4.365,0-6.85,1.759-6.85,4.668c0,7.517,19.458,4.91,19.458,20.61c0,8.668-6.061,13.154-14.427,13.154
		c-7.942,0-14.003-4.001-14.003-7.517c0-1.697,1.576-4.243,3.455-4.243c2.486,0,4.122,4.668,10.305,4.668
		C374.322,209.082,377.474,207.446,377.474,203.809z"/>
</g>
<g>
	<polyline style="fill:#EF4152;" points="195.691,357.43 176.907,331.075 163.848,355.699 	"/>
	<path style="fill:#EF4152;" d="M202.135,371.77l-46.141-31.549v46.937c0,12.741,10.329,23.07,23.07,23.07l0,0
		c12.741,0,23.07-10.329,23.07-23.07V371.77H202.135z"/>
</g>
<path style="fill:#FF525D;" d="M151.485,377.059l53.877-36.839v41.899c0,14.877-12.061,26.938-26.938,26.938l0,0
	c-14.877,0-26.938-12.061-26.938-26.938L151.485,377.059L151.485,377.059z"/>
<path style="fill:#41B787;" d="M147.35,423.8h-9.553v9.553c0,14.729,11.94,26.669,26.669,26.669h9.553v-9.553
	C174.019,435.741,162.079,423.8,147.35,423.8z"/>
<path style="fill:#4BC999;" d="M360.797,401.605v88.022c-3.584,1.609-7.21,3.145-10.877,4.587v-92.609H360.797z"/>
<g>
	<polyline style="fill:#EF4152;" points="372.627,357.43 353.842,331.075 340.783,355.699 	"/>
	<path style="fill:#EF4152;" d="M379.07,371.77l-46.141-31.549v46.937c0,12.741,10.329,23.07,23.07,23.07l0,0
		c12.741,0,23.07-10.329,23.07-23.07V371.77H379.07z"/>
</g>
<path style="fill:#FF525D;" d="M328.42,377.059l53.877-36.839v41.899c0,14.877-12.061,26.938-26.938,26.938l0,0
	c-14.877,0-26.938-12.061-26.938-26.938V377.059z"/>
<path style="fill:#41B787;" d="M324.285,423.8h-9.553v9.553c0,14.729,11.94,26.669,26.669,26.669h9.553v-9.553
	C350.954,435.741,339.014,423.8,324.285,423.8z"/>
<path style="fill:#4BC999;" d="M268.428,435.041v76.653c-3.605,0.178-7.241,0.282-10.888,0.293v-76.946H268.428z"/>
<g>
	<polyline style="fill:#EF4152;" points="280.256,390.866 261.472,364.512 248.411,389.136 	"/>
	<path style="fill:#EF4152;" d="M286.699,405.206l-46.141-31.549v46.936c0,12.741,10.329,23.07,23.07,23.07l0,0
		c12.741,0,23.07-10.329,23.07-23.07v-15.387H286.699z"/>
</g>
<path style="fill:#FF525D;" d="M236.049,410.496l53.877-36.839v41.899c0,14.877-12.061,26.938-26.938,26.938l0,0
	c-14.877,0-26.938-12.061-26.938-26.938L236.049,410.496L236.049,410.496z"/>
<path style="fill:#41B787;" d="M231.914,457.237h-9.553v9.553c0,14.729,11.94,26.669,26.669,26.669h9.553v-9.553
	C258.583,469.178,246.642,457.237,231.914,457.237z"/>
<path style="fill:#797B89;" d="M409.953,304.209v-21.482c0-6.912-5.603-12.515-12.515-12.515h-21.482
	c-11.15,0-16.734,13.48-8.849,21.365l21.482,21.482C396.472,320.942,409.953,315.359,409.953,304.209z"/>
<g>
	<path style="fill:#FF6E7C;" d="M371.292,389.33L371.292,389.33c-2.116,0-3.832-1.716-3.832-3.832v-20.201
		c0-2.116,1.716-3.832,3.832-3.832l0,0c2.116,0,3.832,1.716,3.832,3.832v20.201C375.122,387.615,373.408,389.33,371.292,389.33z"/>
	<path style="fill:#FF6E7C;" d="M194.705,389.33L194.705,389.33c-2.116,0-3.832-1.716-3.832-3.832v-20.201
		c0-2.116,1.716-3.832,3.832-3.832l0,0c2.116,0,3.832,1.716,3.832,3.832v20.201C198.536,387.615,196.821,389.33,194.705,389.33z"/>
	<path style="fill:#FF6E7C;" d="M278.92,422.767L278.92,422.767c-2.116,0-3.832-1.716-3.832-3.832v-20.201
		c0-2.116,1.716-3.832,3.832-3.832l0,0c2.116,0,3.832,1.716,3.832,3.832v20.201C282.752,421.051,281.036,422.767,278.92,422.767z"/>
</g>
<g>
</g>
<g>
</g>
<g>
</g>
<g>
</g>
<g>
</g>
<g>
</g>
<g>
</g>
<g>
</g>
<g>
</g>
<g>
</g>
<g>
</g>
<g>
</g>
<g>
</g>
<g>
</g>
<g>
</g>
</svg>
